<svg width="23" height="23" viewBox="0 0 23 23" fill="none" xmlns="http://www.w3.org/2000/svg">

  <path id="svg_1" fill="#ffffff" d="m4.27845,14.8202c0.89861,-0.8986 2.11739,-1.4035 3.38822,-1.4035l7.66663,0c1.2709,0 2.4896,0.5049 3.3883,1.4035c0.8986,0.8986 1.4034,2.1174 1.4034,3.3882l0,1.9167c0,0.5293 -0.4291,0.9583 -0.9583,0.9583c-0.5293,0 -0.9584,-0.429 -0.9584,-0.9583l0,-1.9167c0,-0.7625 -0.3029,-1.4937 -0.842,-2.0329c-0.5392,-0.5392 -1.2705,-0.8421 -2.033,-0.8421l-7.66663,0c-0.7625,0 -1.49377,0.3029 -2.03294,0.8421c-0.53916,0.5392 -0.84206,1.2704 -0.84206,2.0329l0,1.9167c0,0.5293 -0.42906,0.9583 -0.95834,0.9583c-0.52927,0 -0.95833,-0.429 -0.95833,-0.9583l0,-1.9167c0,-1.2708 0.50483,-2.4896 1.40345,-3.3882z" clip-rule="evenodd" fill-rule="evenodd"/>
  <path id="svg_2" fill="#ffffff" d="m11.4999,3.83341c-1.5878,0 -2.87498,1.28719 -2.87498,2.875c0,1.58782 1.28718,2.875 2.87498,2.875c1.5878,0 2.875,-1.28718 2.875,-2.875c0,-1.58781 -1.2872,-2.875 -2.875,-2.875zm-4.79165,2.875c0,-2.64636 2.1453,-4.79166 4.79165,-4.79166c2.6464,0 4.7917,2.1453 4.7917,4.79166c0,2.64637 -2.1453,4.79169 -4.7917,4.79169c-2.64635,0 -4.79165,-2.14532 -4.79165,-4.79169z" clip-rule="evenodd" fill-rule="evenodd"/>

</svg>